# xmcd
#
# Track frame offsets:
#	150
#	11631
#	28318
#	39731
#	50936
#	64075
#	76920
#	90954
#	103640
#	118111
#	130174
#	145386
#
# Disc length: 2106 seconds
#
# Revision: 0
# Processed by: cddbd v1.5.2PL0 Copyright (c) Steve Scherf et al.
# Submitted via: EasyCDDAExtractor 11.6.0.1
#
DISCID=a608380c
DTITLE=刘文正 - [1978] 闪亮的日子
DYEAR=1978
DGENRE=
TTITLE0=飞翔
TTITLE1=闪亮的日子
TTITLE2=浮萍
TTITLE3=水上人家
TTITLE4=歌
TTITLE5=The end of the world
TTITLE6=一个我喜欢的女孩 ("初恋风暴"电影最佳插曲)
TTITLE7=嘿！嘿！ ("初恋风暴"电影最佳插曲)
TTITLE8=爱的小船
TTITLE9=可爱的明天
TTITLE10=蝴蝶谷
TTITLE11=跳吧！今宵 ("初恋风暴"电影最佳音乐) 
EXTD=
EXTT0=
EXTT1=
EXTT2=
EXTT3=
EXTT4=
EXTT5=
EXTT6=
EXTT7=
EXTT8=
EXTT9=
EXTT10=
EXTT11=
PLAYORDER=
